<svg width="100" height="100" viewBox="0 0 100 100" fill="none" xmlns="http://www.w3.org/2000/svg">
<path d="M99.0389 12.3815C100.56 7.81548 100.276 4.2961 98.1813 1.82181C95.708 -0.271381 92.1879 -0.55577 87.6209 0.963641C83.0544 2.4858 78.9635 5.05405 75.3479 8.6689L63.9326 20.0852L16.4869 8.74113C15.7257 8.50297 15.0122 8.69314 14.3467 9.3114L5.21353 18.4441C4.69099 18.9679 4.47632 19.6099 4.57179 20.3709C4.71448 21.1328 5.11907 21.7029 5.78481 22.0837L42.0302 41.99L23.5504 60.4698L9.70878 56.6893C9.61382 56.6413 9.42414 56.6173 9.1385 56.6173C8.47226 56.6173 7.92573 56.831 7.49739 57.2596L0.648315 64.1799C0.172751 64.7494 -0.0409157 65.3444 0.00656574 65.9622C0.101029 66.7231 0.410158 67.2704 0.933954 67.6041L18.9134 81.0881L32.3979 99.0671C32.8263 99.5914 33.3973 99.899 34.1108 99.9957H34.2535C34.9197 99.9957 35.4662 99.7821 35.8946 99.3545L42.7434 92.5062C43.3617 91.8392 43.5521 91.1019 43.3147 90.2935L39.5329 76.4519L58.0124 57.9708L77.9197 94.2182C78.2046 94.8368 78.7039 95.2171 79.4178 95.36C79.5598 95.4078 79.7265 95.431 79.9174 95.431C80.4869 95.431 80.9395 95.2881 81.2721 95.0032L90.4066 88.1541C91.2137 87.4886 91.4994 86.7044 91.2627 85.8005L79.8472 36.142L91.3344 24.6552C94.9485 21.0389 97.5168 16.9474 99.0389 12.3815Z" fill="white"/>
</svg>
