<svg width="80" height="60" viewBox="0 0 80 60" fill="none" xmlns="http://www.w3.org/2000/svg">
<path d="M78.123 17.5H68.7683L66.1683 11C63.4964 4.31719 57.1198 0 49.9214 0H30.0776C22.8807 0 16.5026 4.31719 13.8291 11L11.2291 17.5H1.876C0.655683 17.5 -0.239631 18.6469 0.0572443 19.8297L0.994746 23.5797C1.20256 24.4141 1.95256 25 2.8135 25H5.94944C3.851 26.8328 2.49944 29.4969 2.49944 32.5V40C2.49944 42.5188 3.46194 44.7922 4.99944 46.5516V55C4.99944 57.7609 7.2385 60 9.99945 60H14.9995C17.7604 60 19.9995 57.7609 19.9995 55V50H59.9995V55C59.9995 57.7609 62.2386 60 64.9995 60H69.9995C72.7605 60 74.9995 57.7609 74.9995 55V46.5516C76.537 44.7937 77.4995 42.5203 77.4995 40V32.5C77.4995 29.4969 76.148 26.8328 74.0511 25H77.187C78.048 25 78.798 24.4141 79.0058 23.5797L79.9433 19.8297C80.2386 18.6469 79.3433 17.5 78.123 17.5ZM23.1135 14.7141C24.2526 11.8672 27.0104 10 30.0776 10H49.9214C52.9886 10 55.7464 11.8672 56.8854 14.7141L59.9995 22.5H19.9995L23.1135 14.7141ZM14.9995 39.9687C11.9994 39.9687 9.99945 37.975 9.99945 34.9844C9.99945 31.9937 11.9994 30 14.9995 30C17.9995 30 22.4995 34.4859 22.4995 37.4766C22.4995 40.4672 17.9995 39.9687 14.9995 39.9687ZM64.9995 39.9687C61.9995 39.9687 57.4995 40.4672 57.4995 37.4766C57.4995 34.4859 61.9995 30 64.9995 30C67.9995 30 69.9995 31.9937 69.9995 34.9844C69.9995 37.975 67.9995 39.9687 64.9995 39.9687V39.9687Z" fill="white"/>
</svg>
