<svg width="32" height="32" viewBox="0 0 32 32" fill="none" xmlns="http://www.w3.org/2000/svg">
<path d="M16 4C10.762 4 6.5 8.212 6.5 13.389C6.5 16.198 9.743 21.523 15.176 27.633C15.598 28.106 16.403 28.107 16.824 27.632C22.257 21.524 25.5 16.2 25.5 13.389C25.5 8.212 21.238 4 16 4ZM16 20.326C12.14 20.326 9 17.214 9 13.389C9 9.564 12.14 6.452 16 6.452C19.859 6.452 23 9.564 23 13.389C23 17.214 19.859 20.326 16 20.326Z" fill="black"/>
<path d="M16 2C9.659 2 4.5 7.109 4.5 13.389C4.5 17.955 10.252 25.105 13.682 28.962C14.269 29.621 15.114 30 16 30C16.886 30 17.731 29.621 18.318 28.962C21.747 25.107 27.5 17.956 27.5 13.389C27.5 7.109 22.341 2 16 2ZM16.824 27.632C16.402 28.107 15.597 28.106 15.176 27.633C9.743 21.523 6.5 16.198 6.5 13.389C6.5 8.212 10.762 4 16 4C21.238 4 25.5 8.212 25.5 13.389C25.5 16.2 22.257 21.524 16.824 27.632Z" fill="black"/>
<path d="M16 6.452C12.14 6.452 9 9.564 9 13.389C9 17.214 12.14 20.326 16 20.326C19.859 20.326 23 17.214 23 13.389C23 9.564 19.859 6.452 16 6.452ZM16 18.326C13.243 18.326 11 16.111 11 13.389C11 10.667 13.243 8.452 16 8.452C18.757 8.452 21 10.667 21 13.389C21 16.111 18.757 18.326 16 18.326Z" fill="black"/>
</svg>
